<?xml version="1.0" encoding="UTF-8"?>
<svg width="141px" height="128px" viewBox="0 0 141 128" version="1.1" xmlns="http://www.w3.org/2000/svg" xmlns:xlink="http://www.w3.org/1999/xlink">
    <!-- Generator: Sketch 47.1 (45422) - http://www.bohemiancoding.com/sketch -->
    <title>Icon</title>
    <desc>Created with Sketch.</desc>
    <defs></defs>
    <g id="Page-1" stroke="none" stroke-width="1" fill="none" fill-rule="evenodd">
        <g id="Apple-TV-Copy" transform="translate(-858.000000, -448.000000)" fill="#FFFFFF">
            <path d="M988.0019,538.0052 L983.5779,565.7172 L954.7399,565.7172 L953.0979,575.9942 L992.2949,575.9942 L998.3589,538.0052 L988.0019,538.0052 Z M903.2339,448.4672 L864.0369,448.4672 L857.9729,486.4562 L868.3299,486.4562 L872.7539,458.7462 L901.5919,458.7462 L903.2339,448.4672 Z M965.6039,555.4202 L977.5879,555.4202 L969.2659,536.0522 L984.1369,516.5762 L971.4859,516.5762 L964.7149,525.4522 L960.8869,516.5762 L948.8999,516.5762 L957.0589,535.4972 L941.7969,555.4202 L954.4489,555.4202 L961.6069,546.0952 L965.6039,555.4202 Z M928.0939,526.5642 C922.5999,526.5642 917.8829,530.6142 916.9409,535.9982 C915.9959,541.3802 919.2719,545.4302 924.7639,545.4302 C930.2579,545.4302 934.9769,541.3802 935.9199,535.9982 C936.8609,530.6142 933.5879,526.5642 928.0939,526.5642 L928.0939,526.5642 Z M946.9039,536.4412 C945.3539,546.5392 937.0269,556.3072 923.9319,556.3072 C910.7269,556.3072 904.2869,545.5982 905.9509,535.3312 C907.6169,525.2872 916.1639,515.6872 929.0939,515.6872 C942.2439,515.6872 948.5159,526.2312 946.9039,536.4412 L946.9039,536.4412 Z M890.1429,526.1192 L886.4789,526.1192 L885.5369,531.3352 L889.8089,531.2782 C891.1409,531.1132 892.3609,530.3922 892.6389,528.7282 C892.9709,526.7302 891.5269,526.1192 890.1429,526.1192 L890.1429,526.1192 Z M889.3649,540.3822 L883.9809,540.3252 L882.9819,545.8742 L887.6469,545.8742 C889.5329,545.8742 890.9179,544.7662 891.2519,543.1012 C891.5269,541.6582 890.8609,540.6042 889.3649,540.3822 L889.3649,540.3822 Z M903.8479,528.0632 C903.1839,531.5582 901.2949,534.1112 898.5759,535.7192 C901.2419,537.6062 902.6839,540.7132 902.0739,544.5432 C901.1289,550.8682 895.5799,555.4202 886.6469,555.4202 L870.2189,555.4202 L877.0449,516.5762 L891.9159,516.5762 C900.4629,516.5762 905.1249,521.5132 903.8479,528.0632 L903.8479,528.0632 Z M968.6349,469.7582 L965.3609,488.4042 L956.4279,469.7582 L947.5469,469.7582 L940.7229,508.6022 L951.8219,508.6022 L955.0959,489.9572 L964.0269,508.6022 L972.9079,508.6022 L979.7319,469.7582 L968.6349,469.7582 Z M925.6329,494.7322 L924.5229,482.8002 L919.1969,494.7322 L925.6329,494.7322 Z M932.9589,469.7582 L938.5079,508.6022 L926.9099,508.6022 L926.4649,503.6082 L915.2579,503.6082 L913.0369,508.6022 L900.7729,508.6022 L919.9729,469.7582 L932.9589,469.7582 Z M902.6599,496.3392 L889.8979,496.3392 L887.7339,508.6022 L876.6369,508.6022 L883.4609,469.7582 L907.6019,469.7582 L905.7149,480.5252 L892.6719,480.5252 L891.7849,485.5742 L904.5469,485.5742 L902.6599,496.3392 Z" id="Icon"></path>
        </g>
    </g>
</svg>